<?xml version="1.0" encoding="UTF-8" standalone="no"?>
<!-- Created with Inkscape (http://www.inkscape.org/) -->

<svg
   xmlns:dc="http://purl.org/dc/elements/1.1/"
   xmlns:cc="http://creativecommons.org/ns#"
   xmlns:rdf="http://www.w3.org/1999/02/22-rdf-syntax-ns#"
   xmlns:svg="http://www.w3.org/2000/svg"
   xmlns="http://www.w3.org/2000/svg"
   xmlns:sodipodi="http://sodipodi.sourceforge.net/DTD/sodipodi-0.dtd"
   xmlns:inkscape="http://www.inkscape.org/namespaces/inkscape"
   width="9mm"
   height="9mm"
   viewBox="0 0 9 9"
   version="1.1"
   id="svg8"
   inkscape:version="0.92.5 (2060ec1f9f, 2020-04-08)"
   sodipodi:docname="logo_ast_0.svg">
  <defs
     id="defs2" />
  <sodipodi:namedview
     id="base"
     pagecolor="#ffffff"
     bordercolor="#666666"
     borderopacity="1.0"
     inkscape:pageopacity="0.0"
     inkscape:pageshadow="2"
     inkscape:zoom="14.430364"
     inkscape:cx="19.266055"
     inkscape:cy="15.321101"
     inkscape:document-units="mm"
     inkscape:current-layer="layer1"
     showgrid="false"
     fit-margin-top="0"
     fit-margin-left="0"
     fit-margin-right="0"
     fit-margin-bottom="0"
     inkscape:window-width="1600"
     inkscape:window-height="814"
     inkscape:window-x="0"
     inkscape:window-y="29"
     inkscape:window-maximized="1" />
  <metadata
     id="metadata5">
    <rdf:RDF>
      <cc:Work
         rdf:about="">
        <dc:format>image/svg+xml</dc:format>
        <dc:type
           rdf:resource="http://purl.org/dc/dcmitype/StillImage" />
        <dc:title></dc:title>
      </cc:Work>
    </rdf:RDF>
  </metadata>
  <g
     inkscape:label="Layer 1"
     inkscape:groupmode="layer"
     id="layer1"
     transform="translate(-257.81548,-236.55953)">
    <g
       id="g867"
       transform="translate(257.81548,236.55953)">
      <g
         transform="translate(280.67804,-357.68088)"
         style="display:none"
         id="layer1-1"
         inkscape:label="Layer 1">
        <g
           style="fill:#000000;stroke:none"
           transform="matrix(0.03527778,0,0,-0.03527778,-397.42013,605.0445)"
           id="g20968">
          <path
             inkscape:connector-curvature="0"
             d="m 9850,20799 c -1552,-87 -3074,-696 -4230,-1692 -748,-645 -1314,-1360 -1749,-2212 -730,-1428 -957,-3053 -645,-4615 439,-2200 1896,-4085 3907,-5055 1281,-618 2701,-841 4097,-644 1338,189 2626,768 3630,1632 586,504 1055,1048 1449,1680 538,862 900,1877 1025,2877 44,347 50,450 50,870 1,435 -5,544 -50,900 -303,2425 -1857,4561 -4069,5593 -1070,499 -2258,731 -3415,666 z m 900,-49 c 1562,-126 2977,-716 4160,-1734 140,-121 475,-451 614,-606 787,-875 1345,-1930 1625,-3069 197,-800 254,-1637 165,-2431 -123,-1101 -481,-2121 -1071,-3055 C 15451,8603 14260,7616 12870,7061 11813,6638 10679,6475 9560,6585 7730,6765 6033,7648 4841,9040 c -868,1013 -1433,2244 -1635,3560 -58,383 -80,665 -80,1060 0,603 67,1136 215,1721 507,2004 1841,3675 3684,4613 882,449 1852,709 2855,766 183,10 692,4 870,-10 z"
             id="path20938" />
          <path
             inkscape:connector-curvature="0"
             d="m 9890,19984 c -25,-2 -108,-8 -185,-14 -507,-40 -1100,-165 -1583,-336 -68,-24 -135,-44 -150,-44 -14,0 -35,-8 -46,-18 -12,-10 -91,-47 -176,-82 -207,-85 -543,-254 -770,-387 -1274,-745 -2260,-1937 -2756,-3330 -180,-507 -292,-1024 -346,-1598 -20,-215 -17,-864 5,-1085 82,-815 284,-1523 637,-2235 901,-1818 2635,-3099 4659,-3440 390,-66 737,-90 1181,-82 339,6 517,20 810,62 2652,387 4780,2382 5319,4989 95,456 125,770 125,1276 0,413 -9,560 -60,910 -222,1534 -1010,2938 -2214,3943 -629,525 -1390,939 -2185,1188 -118,37 -434,123 -495,136 -567,114 -830,143 -1350,148 -206,1 -395,1 -420,-1 z m 780,-45 c 198,-12 384,-33 580,-65 146,-23 335,-59 371,-70 15,-4 14,-15 -9,-105 -23,-94 -24,-101 -8,-118 10,-11 33,-22 52,-25 65,-13 330,-88 484,-138 386,-125 878,-349 1225,-558 229,-138 225,-135 225,-173 0,-41 21,-71 59,-87 98,-40 177,85 102,161 -33,32 -83,39 -115,16 -17,-12 -35,-3 -165,76 -530,328 -1086,565 -1690,721 -73,19 -135,37 -138,39 -4,4 35,168 42,175 5,5 201,-46 378,-99 406,-121 822,-292 1182,-486 1659,-894 2826,-2451 3205,-4278 387,-1867 -105,-3819 -1332,-5285 -418,-499 -893,-916 -1455,-1278 -1363,-876 -3053,-1194 -4659,-877 -1075,213 -2075,698 -2904,1408 -1179,1011 -1938,2406 -2144,3940 -42,311 -51,453 -51,827 0,374 9,516 51,827 34,259 66,425 130,683 420,1690 1535,3139 3071,3991 1070,592 2266,857 3513,778 z m 3060,-1218 c 14,-27 13,-47 -6,-65 -30,-31 -94,-7 -94,35 0,45 79,69 100,30 z"
             id="path20940" />
          <path
             inkscape:connector-curvature="0"
             d="m 10198,19893 c -19,-22 -292,-413 -376,-539 l -61,-91 -87,-7 c -48,-4 -161,-18 -251,-31 -818,-121 -1596,-417 -2283,-869 -139,-92 -330,-231 -447,-325 -39,-32 -44,-33 -73,-21 -52,22 -117,8 -159,-34 -34,-34 -36,-40 -36,-100 0,-55 4,-68 25,-91 35,-37 72,-55 117,-55 101,0 173,113 131,205 -14,31 -33,13 187,179 713,539 1555,899 2445,1045 192,31 379,55 385,49 2,-2 -67,-105 -153,-229 -136,-195 -160,-224 -174,-215 -38,23 -435,-67 -751,-170 -157,-52 -340,-122 -491,-189 -51,-23 -61,-24 -75,-12 -79,70 -203,58 -262,-24 -27,-39 -37,-125 -19,-169 17,-41 72,-87 120,-100 52,-14 109,1 154,40 45,40 59,79 54,144 l -5,55 131,54 c 185,77 552,199 741,246 181,45 371,84 385,79 4,-2 -392,-577 -881,-1278 l -888,-1275 -908,-637 c -499,-351 -908,-638 -909,-638 -1,0 12,42 28,93 176,560 402,1006 739,1458 103,138 111,145 139,141 42,-6 73,4 102,33 85,85 -12,231 -123,185 -46,-19 -69,-56 -69,-109 0,-26 5,-52 11,-58 9,-9 7,-18 -7,-36 -312,-403 -506,-727 -679,-1138 -63,-149 -185,-504 -185,-540 -1,-13 -6,-36 -13,-51 -8,-19 -236,-185 -777,-564 -956,-671 -878,-618 -919,-619 -40,0 -50,-17 -23,-41 11,-9 255,-182 543,-384 288,-202 526,-373 530,-381 4,-8 20,-81 34,-164 85,-472 241,-937 466,-1388 44,-87 79,-162 79,-166 0,-5 -71,-52 -157,-105 -87,-52 -166,-101 -176,-108 -17,-12 -12,-23 66,-153 176,-296 378,-576 586,-815 250,-286 442,-468 817,-774 37,-30 62,-33 71,-8 8,19 242,282 252,282 4,0 65,-41 136,-91 208,-145 394,-255 650,-384 259,-130 462,-215 718,-299 240,-79 589,-164 794,-193 l 53,-8 332,-467 c 183,-257 350,-493 371,-523 31,-45 43,-55 67,-55 23,0 35,9 61,48 145,213 322,450 333,446 17,-7 298,22 466,47 502,76 1007,223 1479,430 145,64 411,198 471,237 25,16 113,69 195,117 83,48 166,100 185,115 19,15 61,42 93,60 36,20 57,38 57,50 0,9 -22,48 -50,86 -27,38 -50,71 -50,74 0,3 28,26 63,50 190,134 372,293 652,574 359,359 624,671 813,957 53,80 105,160 114,178 l 17,32 85,-57 c 47,-31 89,-55 95,-53 15,6 217,420 285,585 213,515 354,1067 410,1599 25,241 26,254 10,269 -12,12 18,37 219,177 127,89 235,167 239,173 14,20 2,31 -33,31 -19,1 -48,10 -64,21 -17,11 -812,569 -1767,1239 l -1738,1218 -498,716 c -274,394 -502,722 -506,728 -9,17 -1,14 174,-67 433,-198 838,-477 1202,-828 l 106,-103 -5,-52 c -5,-46 -2,-55 20,-79 66,-71 177,-32 177,62 0,33 -6,48 -30,72 -27,26 -36,29 -79,26 l -49,-3 -129,125 c -241,236 -485,425 -780,603 -233,141 -597,314 -621,295 -8,-7 -16,-7 -21,-2 -9,9 -364,518 -891,1278 -737,1060 -672,971 -706,974 -19,2 -36,-3 -46,-15 z m 225,-305 c 238,-341 603,-864 643,-919 l 34,-46 -430,-302 -430,-302 -430,302 -429,301 60,87 c 33,47 126,181 207,298 81,116 155,214 165,217 10,2 17,11 15,18 -2,8 80,133 181,278 102,146 193,278 204,293 10,15 23,27 29,25 5,-2 87,-114 181,-250 z m -658,-1309 c 228,-161 415,-295 414,-298 0,-3 -57,-46 -127,-95 -1028,-724 -2302,-1616 -2306,-1616 -3,0 151,224 342,498 931,1336 1256,1802 1259,1802 1,0 190,-131 418,-291 z m 2171,-857 c 438,-629 795,-1145 793,-1147 -2,-1 -497,343 -1099,766 -602,423 -1148,807 -1212,852 -65,45 -116,86 -115,90 3,11 820,586 829,584 4,-1 365,-516 804,-1145 z m -3930,958 c 43,-21 74,-67 74,-109 0,-68 -63,-131 -130,-131 -69,0 -130,63 -130,133 0,35 40,89 80,109 44,23 54,22 106,-2 z m -1379,-425 c 11,-8 26,-30 33,-49 37,-112 -119,-183 -181,-82 -60,94 52,193 148,131 z m 3752,-106 c 66,-46 647,-453 1291,-905 l 1171,-821 870,-1248 c 671,-963 868,-1253 862,-1266 -4,-9 -399,-567 -878,-1238 l -869,-1221 -1286,-902 c -707,-496 -1292,-902 -1300,-902 -8,0 -594,406 -1301,902 l -1285,903 -873,1224 c -479,674 -874,1231 -877,1239 -4,10 1025,1500 1697,2455 35,50 152,135 1226,887 653,458 1235,867 1293,908 58,41 112,73 122,72 9,-2 71,-41 137,-87 z M 6760,16740 c 42,-42 11,-113 -50,-113 -36,0 -69,33 -70,69 0,54 80,84 120,44 z m 6738,-168 c 27,-35 -1,-82 -49,-82 -35,0 -64,38 -54,70 13,40 75,47 103,12 z m -6116,-720 c -64,-93 -434,-623 -822,-1180 -388,-556 -710,-1012 -716,-1012 -23,0 -23,-29 0,-62 12,-18 389,-548 837,-1178 449,-630 819,-1150 823,-1157 4,-7 -163,107 -371,253 -208,146 -521,365 -695,487 -174,122 -321,232 -327,245 -6,13 -20,22 -32,22 -12,0 -235,150 -503,338 -264,186 -702,493 -973,682 -271,190 -491,349 -490,353 3,9 3367,2375 3379,2376 4,1 -45,-75 -110,-167 z m 6870,-718 c 2054,-1442 2118,-1487 2118,-1493 -1,-8 -3384,-2380 -3389,-2376 -3,3 1544,2182 1636,2304 35,47 41,75 19,88 -8,4 -364,510 -791,1123 -428,613 -797,1143 -822,1178 -24,34 -42,62 -39,62 2,0 573,-399 1268,-886 z m 1736,-1906 c -21,-224 -41,-386 -63,-517 -77,-450 -213,-912 -392,-1326 -72,-166 -217,-460 -231,-469 -5,-3 -43,18 -83,47 -41,29 -79,56 -86,60 -8,5 -23,-13 -44,-55 -72,-145 -273,-421 -486,-671 -349,-407 -813,-848 -1103,-1047 -50,-33 -90,-64 -90,-68 0,-4 25,-43 55,-87 30,-43 51,-82 47,-85 -87,-67 -396,-252 -577,-346 -71,-37 -137,-73 -145,-80 -23,-19 -278,-135 -436,-197 -389,-154 -759,-257 -1177,-327 -183,-30 -472,-64 -505,-58 -16,2 21,59 209,323 125,176 234,321 241,321 7,1 19,2 27,3 9,1 12,10 8,28 -4,24 46,99 360,540 301,423 368,512 386,511 48,-4 409,178 635,319 223,140 472,335 658,515 l 111,108 144,-121 c 79,-66 160,-136 179,-155 l 36,-34 101,113 c 149,166 172,195 397,495 72,97 255,413 346,597 107,218 190,423 263,650 70,218 73,233 52,241 -9,4 -18,4 -21,2 -2,-3 -27,-79 -55,-169 -208,-675 -560,-1289 -1030,-1803 l -54,-59 -140,118 c -77,64 -157,133 -177,153 l -37,36 -98,-95 c -253,-244 -509,-440 -813,-622 -128,-76 -455,-240 -470,-235 -5,2 203,301 463,666 l 472,663 1565,1099 c 861,604 1565,1099 1566,1099 0,1 -3,-36 -8,-81 z M 5616,12513 c 257,-180 470,-337 474,-348 93,-235 126,-314 195,-454 208,-422 461,-781 790,-1120 415,-428 917,-771 1461,-1000 140,-58 173,-68 183,-53 11,17 611,-829 601,-848 -11,-23 -1,-40 24,-40 15,0 33,-15 55,-45 39,-54 44,-53 -131,-19 -729,141 -1436,444 -2031,871 -64,47 -122,83 -126,81 -5,-2 -62,-61 -126,-133 -65,-71 -125,-138 -135,-149 -18,-18 -20,-17 -82,30 -34,27 -102,85 -150,129 -48,44 -134,123 -193,175 -191,171 -456,465 -643,713 -170,225 -408,597 -399,621 3,6 76,54 163,106 88,52 164,98 170,102 7,5 -26,80 -96,220 -212,425 -365,875 -454,1336 -27,139 -29,152 -21,152 3,0 215,-147 471,-327 z m 1349,-947 650,-456 542,-762 c 299,-419 541,-763 539,-765 -6,-6 -265,107 -400,174 -311,155 -607,350 -871,572 -121,102 -348,324 -451,442 -314,358 -568,760 -748,1186 -81,192 -81,185 10,121 44,-31 371,-261 729,-512 z m 1978,-1388 c 645,-452 1189,-834 1210,-849 l 38,-27 -407,-286 -407,-285 -236,332 c -131,183 -494,693 -809,1135 -314,441 -569,802 -565,802 3,0 532,-370 1176,-822 z m 2971,-309 c -440,-616 -804,-1123 -811,-1126 -10,-4 -760,512 -800,551 -9,8 280,216 1195,858 664,465 1209,845 1211,843 2,-2 -356,-509 -795,-1126 z m -1261,-890 c 221,-155 405,-285 409,-288 9,-7 -807,-1156 -821,-1156 -5,0 -29,27 -54,60 -83,111 -767,1076 -770,1085 -2,11 802,579 821,580 8,0 195,-127 415,-281 z"
             id="path20942" />
          <path
             inkscape:connector-curvature="0"
             d="m 17754.428,19397.857 c -192,-54 -314,-220 -283,-387 21,-112 74,-156 230,-193 157,-37 200,-70 208,-159 8,-100 -40,-195 -120,-238 -36,-19 -58,-23 -138,-23 -83,0 -101,3 -145,26 l -50,27 -3,76 c -3,72 -4,76 -26,76 -21,0 -24,-7 -34,-77 -7,-43 -14,-94 -18,-114 -6,-35 -5,-36 47,-59 41,-18 78,-25 150,-28 152,-7 243,27 347,129 68,67 103,135 110,216 6,79 -15,140 -64,182 -33,30 -54,37 -223,82 -104,27 -147,62 -162,129 -17,76 10,168 63,216 46,43 90,58 168,58 65,1 82,-3 123,-27 l 47,-28 v -59 c 0,-56 2,-60 23,-60 21,0 24,7 35,78 6,42 14,87 18,100 6,19 0,25 -42,44 -63,28 -187,34 -261,13 z"
             id="path20944" />
          <path
             inkscape:connector-curvature="0"
             d="m 23751.428,19402.857 c -161,-34 -287,-169 -298,-321 -11,-157 51,-222 254,-270 51,-11 106,-29 122,-40 121,-73 64,-312 -86,-364 -87,-29 -225,-12 -286,36 -24,19 -26,27 -26,90 0,67 -1,70 -22,67 -20,-3 -24,-11 -30,-68 -4,-36 -12,-85 -18,-109 -13,-52 -13,-53 83,-82 102,-32 238,-25 327,17 89,42 172,120 211,199 26,53 31,75 31,134 0,134 -57,188 -247,231 -157,36 -205,81 -205,190 0,154 136,256 294,221 31,-7 70,-24 86,-38 27,-22 30,-31 30,-79 0,-47 3,-54 19,-54 16,0 21,9 26,48 4,26 11,63 16,82 16,64 12,76 -33,94 -51,21 -184,29 -248,16 z"
             id="path20946" />
          <path
             inkscape:connector-curvature="0"
             d="m 16868.428,19320.857 c -28,-46 -163,-258 -298,-471 -135,-214 -258,-404 -273,-423 -21,-27 -34,-34 -61,-34 -30,0 -35,-3 -35,-22 0,-23 1,-23 166,-24 163,-2 165,-2 162,20 -3,18 -11,22 -60,26 -31,3 -60,9 -64,13 -13,12 8,57 100,212 l 87,145 h 184 c 183,0 185,0 189,-22 11,-48 36,-262 36,-299 0,-42 -6,-46 -85,-51 -31,-2 -41,-7 -43,-23 -3,-19 3,-20 183,-20 l 185,-1 v 23 c 0,20 -5,23 -36,23 -74,0 -78,9 -109,240 -9,63 -36,261 -60,439 -25,178 -45,325 -45,327 0,2 -16,4 -35,4 -33,0 -38,-5 -88,-82 z m 64,-311 c 12,-97 20,-180 17,-182 -3,-3 -75,-4 -160,-3 l -155,3 130,209 c 152,242 133,245 168,-27 z"
             id="path20948" />
          <path
             inkscape:connector-curvature="0"
             d="m 20576.428,19055.857 c -120,-191 -265,-419 -322,-505 l -102,-158 h -41 c -35,0 -40,-3 -40,-22 0,-23 1,-23 165,-24 l 165,-1 v 23 c 0,22 -4,24 -54,24 -33,0 -58,5 -65,13 -13,17 1,47 109,229 l 75,128 h 186 186 l 17,-137 c 9,-76 19,-152 22,-168 6,-46 -13,-64 -71,-67 -41,-2 -51,-7 -53,-23 -3,-19 3,-20 183,-21 182,0 186,0 183,20 -2,15 -11,22 -33,24 -65,6 -74,11 -84,50 -8,30 -58,377 -125,872 l -11,85 -35,3 -36,3 z m 224,0 c 12,-104 25,-198 28,-210 l 5,-23 h -162 c -89,0 -160,4 -158,8 8,20 254,411 258,412 3,0 16,-84 29,-187 z"
             id="path20950" />
          <path
             inkscape:connector-curvature="0"
             d="m 18237.428,19309.857 c -4,-43 -9,-98 -13,-123 -5,-40 -4,-44 15,-44 17,0 24,9 32,43 21,79 31,105 47,119 11,9 58,14 151,17 l 134,3 -7,-53 c -13,-99 -105,-637 -126,-738 -12,-56 -27,-108 -34,-118 -8,-10 -32,-18 -69,-21 -31,-2 -56,-8 -56,-12 0,-5 -2,-14 -5,-22 -4,-11 34,-13 205,-13 115,0 210,3 210,7 0,3 3,13 6,22 5,14 -3,16 -53,16 -35,0 -67,6 -78,14 -18,13 -18,19 -6,107 20,147 127,771 137,798 4,11 28,13 136,8 74,-3 135,-10 142,-17 6,-6 11,-43 12,-83 1,-62 4,-72 20,-72 15,0 21,16 35,105 10,58 18,112 18,120 1,13 -52,15 -423,15 h -424 z"
             id="path20952" />
          <path
             inkscape:connector-curvature="0"
             d="m 19221.428,19372.857 c 0,-16 10,-20 60,-26 44,-5 63,-12 71,-25 12,-23 -12,-194 -76,-542 -62,-339 -64,-350 -87,-369 -13,-11 -37,-18 -64,-18 -39,0 -44,-3 -44,-22 v -23 h 195 c 194,0 195,0 195,22 0,20 -6,22 -56,25 -40,2 -60,8 -67,20 -8,12 -3,61 16,180 49,299 128,723 136,731 4,4 46,8 94,8 116,0 169,-22 197,-83 47,-103 0,-232 -107,-295 -37,-22 -62,-28 -130,-31 -46,-3 -83,-9 -83,-15 0,-5 55,-93 123,-196 68,-102 148,-227 178,-277 l 54,-91 h 97 c 84,0 98,2 98,17 0,9 -14,21 -32,28 -18,6 -46,28 -61,47 -38,47 -309,447 -305,450 2,1 29,7 61,14 33,7 80,28 112,49 195,132 193,377 -4,432 -20,5 -155,10 -303,10 -259,0 -268,-1 -268,-20 z"
             id="path20954" />
          <path
             inkscape:connector-curvature="0"
             d="m 21331.428,19372.857 c 0,-15 10,-20 48,-25 26,-3 54,-10 62,-14 32,-17 28,-57 -61,-561 -22,-124 -47,-255 -55,-292 -14,-63 -17,-67 -53,-82 -21,-8 -40,-23 -43,-33 -5,-17 13,-18 353,-18 196,0 360,2 363,5 5,5 36,200 36,227 0,7 -8,13 -19,13 -14,0 -22,-15 -36,-65 -31,-115 -19,-110 -263,-110 -116,0 -213,3 -216,6 -3,3 10,100 29,214 19,115 35,210 35,212 0,2 83,3 183,3 h 184 l 11,25 c 22,48 21,48 -130,44 -79,-3 -164,-2 -189,1 l -45,5 34,190 c 19,105 39,196 44,203 7,8 46,12 132,12 134,-1 204,-11 217,-31 5,-8 9,-40 9,-72 0,-43 4,-59 15,-64 9,-3 18,-3 20,-1 3,3 10,40 15,84 6,43 13,94 16,111 l 6,33 h -351 c -339,0 -351,-1 -351,-20 z"
             id="path20956" />
          <path
             inkscape:connector-curvature="0"
             d="m 22238.428,19373.857 c -4,-16 3,-20 54,-25 52,-6 60,-10 65,-32 8,-30 -4,-113 -63,-444 -52,-297 -54,-367 -10,-437 32,-51 95,-89 171,-105 118,-25 268,28 404,142 59,49 72,56 67,38 -23,-102 -35,-154 -35,-158 0,-3 61,-5 135,-5 121,0 135,2 135,17 0,17 -22,24 -95,30 -24,2 -31,8 -33,29 -5,46 115,754 149,872 11,41 37,57 90,57 22,0 29,5 29,20 0,19 -7,20 -190,20 -179,0 -190,-1 -190,-19 0,-15 10,-19 56,-24 31,-3 62,-11 67,-16 8,-8 7,-37 -2,-99 -15,-111 -89,-569 -97,-602 -8,-38 -112,-131 -195,-175 -66,-35 -83,-39 -159,-43 -75,-3 -90,-1 -130,20 -95,51 -106,106 -70,329 34,206 103,571 116,612 5,16 -6,17 -129,17 -124,0 -135,-2 -140,-19 z"
             id="path20958" />
          <path
             inkscape:connector-curvature="0"
             d="m 14905,11586 c -62,-27 -89,-106 -57,-167 l 18,-36 -63,-119 c -338,-631 -774,-1160 -1318,-1599 -127,-103 -306,-234 -423,-310 -73,-47 -73,-47 -107,-31 -42,20 -68,20 -111,0 -42,-20 -64,-59 -64,-111 0,-45 20,-77 60,-98 79,-41 169,18 170,112 1,36 4,40 73,83 461,285 979,769 1332,1245 171,230 346,508 438,697 l 52,107 49,1 c 41,0 53,5 82,34 29,29 34,41 34,83 0,58 -19,90 -66,109 -41,17 -60,17 -99,0 z m 108,-68 c 22,-29 18,-65 -9,-92 -44,-44 -116,-19 -122,42 -7,73 87,109 131,50 z M 12950,9270 c 27,-27 25,-66 -5,-95 -31,-32 -77,-33 -105,-3 -26,28 -26,58 1,92 26,33 79,36 109,6 z"
             id="path20960" />
          <path
             inkscape:connector-curvature="0"
             d="m 12962,18133 c -105,-52 -111,-211 -10,-273 56,-34 139,-25 186,20 26,25 13,32 177,-90 569,-421 1049,-958 1399,-1569 286,-498 498,-1070 597,-1611 22,-126 33,-150 57,-127 23,24 -76,463 -174,770 -133,414 -374,914 -610,1267 -28,41 -53,80 -57,86 -6,10 271,244 288,244 8,0 183,-269 249,-384 238,-413 411,-822 547,-1290 23,-76 43,-144 45,-151 3,-6 -7,-17 -21,-23 -59,-27 -84,-131 -47,-194 19,-34 78,-68 118,-68 40,0 94,30 115,64 25,41 25,112 -1,153 -20,33 -66,63 -97,63 -15,0 -22,15 -37,78 -94,405 -346,1008 -596,1423 -99,164 -243,384 -259,393 -5,3 -81,-53 -169,-124 -88,-72 -164,-130 -169,-129 -4,0 -46,53 -93,116 -289,393 -706,801 -1134,1107 l -79,57 -1,54 c -2,117 -120,190 -224,138 z m 112,-37 c 44,-18 66,-52 66,-101 0,-47 -19,-79 -60,-100 -37,-19 -54,-19 -95,1 -89,42 -79,165 15,203 34,13 36,13 74,-3 z m 2697,-3155 c 20,-20 29,-39 29,-61 0,-46 -47,-90 -95,-90 -48,0 -95,44 -95,90 0,46 47,90 95,90 27,0 44,-8 66,-29 z"
             id="path20962" />
          <path
             inkscape:connector-curvature="0"
             d="m 445.7146,18927.571 c -63,-39 -87,-94 -69,-165 l 11,-42 -69,-93 c -513,-694 -866,-1465 -1053,-2299 -21,-94 -35,-138 -47,-145 -10,-5 -32,-24 -50,-42 -27,-25 -33,-39 -33,-73 0,-34 6,-48 34,-76 28,-28 42,-34 75,-34 70,0 107,28 126,97 12,42 -21,93 -83,128 -4,3 26,138 64,290 183,732 549.000002,1502 1008,2123 50,67 65,81 81,76 11,-3 40,-8 65,-10 87,-10 153,53 154,147 1,40 -4,53 -29,79 -60,63 -123,76 -185,39 z m 121,-39 c 24,-13 49,-61 49,-94 0,-14 -13,-40 -28,-57 -24,-26 -36,-32 -72,-32 -36,0 -48,6 -72,32 -39,43 -38,92 1,132 31,31 83,39 122,19 z m -1264,-2772 c 31,-29 30,-71 -3,-97 -30,-24 -43,-26 -77,-10 -33,15 -49,52 -37,83 18,48 78,61 117,24 z"
             id="path20964" />
          <path
             inkscape:connector-curvature="0"
             d="m 13719,8793 c -37,-23 -59,-64 -59,-111 0,-40 0,-40 -108,-110 -902,-582 -1938,-915 -3020,-968 -78,-4 -145,-11 -148,-16 -3,-5 -1,-15 6,-23 13,-15 86,-13 385,11 985,80 2020,437 2825,974 l 85,57 35,-18 c 43,-23 54,-23 106,0 64,29 90,119 51,171 -37,49 -108,64 -158,33 z m 116,-56 c 22,-31 18,-65 -10,-92 -33,-34 -77,-33 -104,1 -26,33 -26,54 -1,87 32,40 88,42 115,4 z"
             id="path20966" />
        </g>
        <path
           inkscape:connector-curvature="0"
           id="path20994"
           d="M -252.32262,123.74975 -5.836772,-51.933596"
           style="fill:none;stroke:#000000;stroke-width:0.26458332px;stroke-linecap:butt;stroke-linejoin:miter;stroke-opacity:1" />
      </g>
      <g
         transform="translate(280.67804,-357.68088)"
         inkscape:label="Layer 2"
         id="layer5">
        <path
           inkscape:connector-curvature="0"
           id="path20997"
           d="m -275.61361,358.96717 -4.54194,3.23728 4.55624,3.24832 v 0"
           style="fill:none;stroke:#ff0000;stroke-width:0.18426764;stroke-linecap:butt;stroke-linejoin:miter;stroke-miterlimit:4;stroke-dasharray:none;stroke-opacity:1" />
        <path
           inkscape:connector-curvature="0"
           id="path20999"
           d="m -276.19996,358.1416 2.88495,4.05374"
           style="fill:none;stroke:#000000;stroke-width:0.00487541px;stroke-linecap:butt;stroke-linejoin:miter;stroke-opacity:1" />
        <path
           inkscape:connector-curvature="0"
           id="path21001"
           d="m -276.70765,365.43067 4.51983,-3.22492 -4.54323,-3.23793"
           style="fill:none;stroke:#fb0000;stroke-width:0.18426764;stroke-linecap:butt;stroke-linejoin:miter;stroke-miterlimit:4;stroke-dasharray:none;stroke-opacity:1" />
        <path
           inkscape:connector-curvature="0"
           id="path21003"
           d="m -276.19996,358.1416 2.88495,4.05374 -2.85968,4.0234 -2.8556,-4.02569 z"
           style="fill:none;stroke:#ff0000;stroke-width:0.18426764;stroke-linecap:butt;stroke-linejoin:miter;stroke-miterlimit:4;stroke-dasharray:none;stroke-opacity:1" />
        <path
           style="fill:none;fill-opacity:1;stroke:#ff0000;stroke-width:0.36853528;stroke-miterlimit:4;stroke-dasharray:none;stroke-opacity:1"
           d="m -271.86231,362.18088 a 4.3157325,4.3157325 0 0 1 -4.31573,4.31573 4.3157325,4.3157325 0 0 1 -4.31573,-4.31573 4.3157325,4.3157325 0 0 1 4.31573,-4.31573 4.3157325,4.3157325 0 0 1 4.31573,4.31573 z"
           id="path21005" />
      </g>
    </g>
  </g>
</svg>
