<?xml version="1.0" encoding="UTF-8" standalone="no"?>
<!-- Created with Inkscape (http://www.inkscape.org/) -->

<svg
   xmlns:dc="http://purl.org/dc/elements/1.1/"
   xmlns:cc="http://creativecommons.org/ns#"
   xmlns:rdf="http://www.w3.org/1999/02/22-rdf-syntax-ns#"
   xmlns:svg="http://www.w3.org/2000/svg"
   xmlns="http://www.w3.org/2000/svg"
   xmlns:sodipodi="http://sodipodi.sourceforge.net/DTD/sodipodi-0.dtd"
   xmlns:inkscape="http://www.inkscape.org/namespaces/inkscape"
   width="7.7732673mm"
   height="6.9920359mm"
   viewBox="0 0 7.7732673 6.9920359"
   version="1.1"
   id="svg8"
   sodipodi:docname="open_hw.svg"
   inkscape:version="0.92.5 (2060ec1f9f, 2020-04-08)">
  <defs
     id="defs2">
    <clipPath
       id="clipPath841"
       clipPathUnits="userSpaceOnUse">
      <path
         style="clip-rule:evenodd"
         inkscape:connector-curvature="0"
         id="path839"
         d="M 165,165 H 9752 V 13783 H 165 Z" />
    </clipPath>
    <clipPath
       id="clipPath859"
       clipPathUnits="userSpaceOnUse">
      <path
         style="clip-rule:evenodd"
         inkscape:connector-curvature="0"
         id="path857"
         d="M 165,165 H 9752 V 13783 H 165 Z" />
    </clipPath>
    <clipPath
       id="clipPath865"
       clipPathUnits="userSpaceOnUse">
      <path
         style="clip-rule:evenodd"
         inkscape:connector-curvature="0"
         id="path863"
         d="M 2939,4752 H 6978 V 8958 H 2939 Z" />
    </clipPath>
  </defs>
  <sodipodi:namedview
     id="base"
     pagecolor="#ffffff"
     bordercolor="#666666"
     borderopacity="1.0"
     inkscape:pageopacity="0.0"
     inkscape:pageshadow="2"
     inkscape:zoom="2.6801167"
     inkscape:cx="-4.2193857"
     inkscape:cy="-13.997227"
     inkscape:document-units="mm"
     inkscape:current-layer="layer1"
     showgrid="false"
     inkscape:window-width="1600"
     inkscape:window-height="814"
     inkscape:window-x="0"
     inkscape:window-y="29"
     inkscape:window-maximized="1"
     fit-margin-top="0"
     fit-margin-left="0"
     fit-margin-right="0"
     fit-margin-bottom="0" />
  <metadata
     id="metadata5">
    <rdf:RDF>
      <cc:Work
         rdf:about="">
        <dc:format>image/svg+xml</dc:format>
        <dc:type
           rdf:resource="http://purl.org/dc/dcmitype/StillImage" />
        <dc:title></dc:title>
      </cc:Work>
    </rdf:RDF>
  </metadata>
  <g
     inkscape:label="Layer 1"
     inkscape:groupmode="layer"
     id="layer1"
     transform="translate(-110.77925,-138.29394)">
    <path
       style="fill:#000000;stroke-width:0.01392498"
       d="m 111.91913,144.92719 c -0.20871,-0.20883 -0.35847,-0.36937 -0.35847,-0.38428 0,-0.0141 0.1222,-0.20323 0.27154,-0.42032 0.14935,-0.21709 0.27124,-0.40604 0.27087,-0.41989 -0.001,-0.0495 -0.30223,-0.77607 -0.32843,-0.79295 -0.0143,-0.009 -0.23591,-0.0556 -0.49248,-0.10305 -0.25656,-0.0475 -0.47432,-0.0926 -0.48389,-0.1003 -0.0257,-0.0207 -0.0252,-1.03116 5.4e-4,-1.05252 0.01,-0.008 0.23666,-0.0558 0.50399,-0.10574 0.36417,-0.0681 0.49187,-0.0971 0.50925,-0.11562 0.0275,-0.0293 0.31973,-0.70715 0.31911,-0.74011 -2.3e-4,-0.0125 -0.12565,-0.20441 -0.27871,-0.42651 -0.15306,-0.2221 -0.28217,-0.4186 -0.28692,-0.43665 -0.008,-0.0286 0.038,-0.0796 0.35172,-0.39338 0.19819,-0.19831 0.37127,-0.36056 0.38461,-0.36056 0.0133,0 0.21631,0.1316 0.45104,0.29243 0.23472,0.16083 0.43258,0.29242 0.43968,0.29242 0.0298,0 0.70247,-0.28264 0.7234,-0.30395 0.0159,-0.0162 0.0513,-0.17648 0.11581,-0.52429 0.0511,-0.27555 0.0996,-0.50896 0.10764,-0.5187 0.0212,-0.0255 1.0317,-0.0258 1.05253,-3e-4 0.008,0.01 0.056,0.24299 0.10698,0.51871 0.0662,0.35789 0.0995,0.50804 0.1163,0.52487 0.0334,0.0334 0.71106,0.30732 0.73638,0.2976 0.0115,-0.004 0.20776,-0.13646 0.43609,-0.29341 0.22833,-0.15696 0.42671,-0.28538 0.44085,-0.28538 0.0317,0 0.74265,0.70803 0.74265,0.73964 0,0.0123 -0.12638,0.20648 -0.28085,0.43158 -0.15446,0.2251 -0.28335,0.4218 -0.28642,0.43712 -0.006,0.0324 0.27975,0.71189 0.31554,0.74912 0.0181,0.0188 0.14509,0.0476 0.51014,0.11587 0.26736,0.05 0.49404,0.0974 0.50374,0.10549 0.0254,0.0211 0.0256,1.01228 2.4e-4,1.04456 -0.0124,0.0157 -0.15253,0.047 -0.48389,0.10819 -0.25657,0.0473 -0.47907,0.0941 -0.49443,0.10397 -0.0287,0.0184 -0.32715,0.74139 -0.32715,0.79254 0,0.0141 0.11687,0.19579 0.25971,0.40372 0.14285,0.20793 0.26646,0.39542 0.2747,0.41664 0.0146,0.0376 0.006,0.0475 -0.34994,0.4035 -0.35624,0.35625 -0.36584,0.36457 -0.4035,0.34985 -0.0212,-0.008 -0.20411,-0.12878 -0.40642,-0.26774 -0.21192,-0.14556 -0.38125,-0.25265 -0.39948,-0.25265 -0.0174,0 -0.10779,0.0411 -0.20086,0.0913 -0.0931,0.0502 -0.17954,0.0893 -0.19215,0.0869 -0.0267,-0.005 -0.71062,-1.63693 -0.71184,-1.69833 -5.7e-4,-0.0284 0.0116,-0.0446 0.0515,-0.0688 0.11916,-0.0723 0.27404,-0.20137 0.34612,-0.28844 0.0874,-0.10564 0.19009,-0.30354 0.22151,-0.42714 0.12165,-0.47838 -0.11171,-0.99815 -0.54968,-1.22436 -0.17361,-0.0897 -0.30452,-0.12224 -0.49488,-0.12312 -0.2987,-10e-4 -0.54002,0.0947 -0.75708,0.30142 -0.36496,0.3476 -0.43895,0.8989 -0.17963,1.33849 0.0704,0.11933 0.24894,0.29723 0.38433,0.38293 0.0595,0.0377 0.10255,0.0753 0.10792,0.0942 0.0122,0.0432 -0.67123,1.69858 -0.70585,1.70957 -0.0139,0.004 -0.0958,-0.0303 -0.19682,-0.0835 -0.0952,-0.0501 -0.18599,-0.091 -0.20185,-0.091 -0.0159,0 -0.20268,0.11906 -0.41517,0.26457 -0.2125,0.14552 -0.39643,0.26458 -0.40875,0.26458 -0.0123,0 -0.18371,-0.1614 -0.38087,-0.35867 z"
       id="path10550"
       inkscape:connector-curvature="0" />
  </g>
</svg>
